<?xml version="1.0" encoding="UTF-8"?>
<svg version="1.1" xmlns="http://www.w3.org/2000/svg" width="616" height="376">
<path d="M0 0 C0.495 0.495 0.495 0.495 1 1 C3.50416935 1.21063107 5.99140081 1.37572077 8.5 1.5 C15.86486486 1.86486486 15.86486486 1.86486486 17 3 C18.03125 3.144375 19.0625 3.28875 20.125 3.4375 C23.94345392 3.9917917 27.32219105 4.87414012 31 6 C31 6.66 31 7.32 31 8 C32.32 8 33.64 8 35 8 C35 8.66 35 9.32 35 10 C36.32 10 37.64 10 39 10 C39 10.66 39 11.32 39 12 C40.32 12 41.64 12 43 12 C43 12.66 43 13.32 43 14 C44.32 14 45.64 14 47 14 C47 14.66 47 15.32 47 16 C47.66 16 48.32 16 49 16 C49 16.66 49 17.32 49 18 C50.98 18.66 52.96 19.32 55 20 C55 20.66 55 21.32 55 22 C55.66 22 56.32 22 57 22 C57 22.66 57 23.32 57 24 C57.66 24 58.32 24 59 24 C59 24.66 59 25.32 59 26 C59.66 26 60.32 26 61 26 C61 26.66 61 27.32 61 28 C61.66 28 62.32 28 63 28 C63 28.66 63 29.32 63 30 C63.66 30 64.32 30 65 30 C65 30.66 65 31.32 65 32 C65.66 32 66.32 32 67 32 C67 33.32 67 34.64 67 36 C67.66 36 68.32 36 69 36 C69 36.66 69 37.32 69 38 C69.66 38 70.32 38 71 38 C71 39.32 71 40.64 71 42 C71.66 42 72.32 42 73 42 C73 42.66 73 43.32 73 44 C73.66 44 74.32 44 75 44 C75 45.32 75 46.64 75 48 C75.66 48 76.32 48 77 48 C77 49.32 77 50.64 77 52 C77.66 52 78.32 52 79 52 C79 53.98 79 55.96 79 58 C79.66 58 80.32 58 81 58 C81.20496094 58.99902344 81.40992188 59.99804688 81.62109375 61.02734375 C81.89050781 62.31769531 82.15992188 63.60804688 82.4375 64.9375 C82.70433594 66.22527344 82.97117187 67.51304687 83.24609375 68.83984375 C83.67181616 71.84638879 83.67181616 71.84638879 85 73 C85.27037106 76.42470005 85.44629658 79.84239304 85.60546875 83.2734375 C85.46158649 86.94187048 85.46158649 86.94187048 87 90 C87.0991757 92.14394519 87.1297015 94.29126732 87.125 96.4375 C87.12757813 97.61183594 87.13015625 98.78617187 87.1328125 99.99609375 C87 103 87 103 86 105 C85.76725791 107.87910588 85.58027243 110.74146495 85.4375 113.625 C85.39431641 114.42679687 85.35113281 115.22859375 85.30664062 116.0546875 C85.20048543 118.0362511 85.09973145 120.01810271 85 122 C84.34 122 83.68 122 83 122 C83.02320313 122.56847656 83.04640625 123.13695312 83.0703125 123.72265625 C83.19191688 128.92558648 82.67723492 133.07312243 81 138 C80.34 138 79.68 138 79 138 C78.855625 138.721875 78.71125 139.44375 78.5625 140.1875 C78.04166667 142.79166667 77.52083333 145.39583333 77 148 C76.34 148 75.68 148 75 148 C75 149.32 75 150.64 75 152 C74.34 152 73.68 152 73 152 C73 153.32 73 154.64 73 156 C72.34 156 71.68 156 71 156 C71 156.66 71 157.32 71 158 C70.34 158 69.68 158 69 158 C69 159.98 69 161.96 69 164 C69.66 164 70.32 164 71 164 C71 164.66 71 165.32 71 166 C71.66 166 72.32 166 73 166 C73 166.66 73 167.32 73 168 C73.66 168 74.32 168 75 168 C75 168.66 75 169.32 75 170 C75.66 170 76.32 170 77 170 C77 170.66 77 171.32 77 172 C77.66 172 78.32 172 79 172 C79 172.66 79 173.32 79 174 C79.66 174 80.32 174 81 174 C81 174.66 81 175.32 81 176 C81.66 176 82.32 176 83 176 C83 176.66 83 177.32 83 178 C83.66 178 84.32 178 85 178 C85.22893102 181.03333605 85.35414522 183.97366814 85 187 C83.125 189.0625 83.125 189.0625 81 190 C80.34 190 79.68 190 79 190 C79 190.66 79 191.32 79 192 C78.34 192 77.68 192 77 192 C76.9175 192.5775 76.835 193.155 76.75 193.75 C75.7924861 196.6225417 74.18571625 197.95089101 72 200 C71.67 200.66 71.34 201.32 71 202 C70.34 202 69.68 202 69 202 C69 202.66 69 203.32 69 204 C66.36 204 63.72 204 61 204 C61 203.34 61 202.68 61 202 C60.34 202 59.68 202 59 202 C59 201.34 59 200.68 59 200 C58.34 200 57.68 200 57 200 C57 199.34 57 198.68 57 198 C56.34 198 55.68 198 55 198 C55 197.34 55 196.68 55 196 C54.34 196 53.68 196 53 196 C53 195.34 53 194.68 53 194 C52.34 194 51.68 194 51 194 C51 193.34 51 192.68 51 192 C50.34 192 49.68 192 49 192 C49 191.34 49 190.68 49 190 C46.03 189.01 46.03 189.01 43 188 C43 187.34 43 186.68 43 186 C42.34 186 41.68 186 41 186 C41 186.66 41 187.32 41 188 C39.68 188 38.36 188 37 188 C37 188.66 37 189.32 37 190 C35.68 190 34.36 190 33 190 C33 190.66 33 191.32 33 192 C31.02 192 29.04 192 27 192 C27 192.66 27 193.32 27 194 C21.84053135 195.7041678 17.5574667 196.22225605 12.0625 196.125 C11.37865234 196.11597656 10.69480469 196.10695313 9.99023438 196.09765625 C8.32666713 196.07438958 6.66328369 196.03853167 5 196 C5 196.66 5 197.32 5 198 C2.52076199 198.02685095 0.0418116 198.04676547 -2.4375 198.0625 C-3.14455078 198.07087891 -3.85160156 198.07925781 -4.58007812 198.08789062 C-6.38693559 198.09653588 -8.19387603 198.05220011 -10 198 C-10.33 197.67 -10.66 197.34 -11 197 C-13.34987262 196.76472227 -15.70556039 196.58613583 -18.0625 196.4375 C-19.35285156 196.35371094 -20.64320313 196.26992188 -21.97265625 196.18359375 C-22.97167969 196.12300781 -23.97070312 196.06242188 -25 196 C-25 195.34 -25 194.68 -25 194 C-27.64 194 -30.28 194 -33 194 C-33 193.34 -33 192.68 -33 192 C-34.98 192 -36.96 192 -39 192 C-39 191.34 -39 190.68 -39 190 C-40.32 190 -41.64 190 -43 190 C-43 189.34 -43 188.68 -43 188 C-44.32 188 -45.64 188 -47 188 C-47 187.34 -47 186.68 -47 186 C-48.32 186 -49.64 186 -51 186 C-51 185.34 -51 184.68 -51 184 C-51.66 184 -52.32 184 -53 184 C-53 183.34 -53 182.68 -53 182 C-54.32 182 -55.64 182 -57 182 C-57 181.34 -57 180.68 -57 180 C-57.66 180 -58.32 180 -59 180 C-59 179.34 -59 178.68 -59 178 C-59.66 178 -60.32 178 -61 178 C-61 177.34 -61 176.68 -61 176 C-61.66 176 -62.32 176 -63 176 C-63 175.34 -63 174.68 -63 174 C-63.66 174 -64.32 174 -65 174 C-65 173.34 -65 172.68 -65 172 C-65.66 172 -66.32 172 -67 172 C-67 171.34 -67 170.68 -67 170 C-67.66 170 -68.32 170 -69 170 C-69 169.34 -69 168.68 -69 168 C-69.66 168 -70.32 168 -71 168 C-71 167.34 -71 166.68 -71 166 C-71.66 166 -72.32 166 -73 166 C-73 165.34 -73 164.68 -73 164 C-73.66 164 -74.32 164 -75 164 C-75 162.68 -75 161.36 -75 160 C-75.66 160 -76.32 160 -77 160 C-79 157 -79 157 -79 154 C-79.66 154 -80.32 154 -81 154 C-81 152.68 -81 151.36 -81 150 C-81.66 150 -82.32 150 -83 150 C-83 148.02 -83 146.04 -83 144 C-83.66 144 -84.32 144 -85 144 C-86.99785435 139.8794254 -87.17835515 136.54805635 -87 132 C-87.66 132 -88.32 132 -89 132 C-89.09087891 130.93458984 -89.09087891 130.93458984 -89.18359375 129.84765625 C-89.30927734 128.46900391 -89.30927734 128.46900391 -89.4375 127.0625 C-89.55931641 125.68771484 -89.55931641 125.68771484 -89.68359375 124.28515625 C-89.76044976 122.03840268 -89.76044976 122.03840268 -91 121 C-91.1011692 117.90918535 -91.13968558 114.84117445 -91.1328125 111.75 C-91.13376923 110.82155273 -91.13472595 109.89310547 -91.13571167 108.93652344 C-91.13639355 106.96940035 -91.13453872 105.00227504 -91.13037109 103.03515625 C-91.12502295 100.01296974 -91.13031582 96.99093185 -91.13671875 93.96875 C-91.13605797 92.06249967 -91.13477681 90.15624943 -91.1328125 88.25 C-91.13483673 87.33959961 -91.13686096 86.42919922 -91.13894653 85.49121094 C-91.11494969 79.11494969 -91.11494969 79.11494969 -90 78 C-89.81422064 76.29554813 -89.67670464 74.58573886 -89.5625 72.875 C-89.19351981 68.31035802 -88.44506655 64.33519964 -87 60 C-86.34 60 -85.68 60 -85 60 C-85 58.02 -85 56.04 -85 54 C-84.34 54 -83.68 54 -83 54 C-82.855625 53.236875 -82.71125 52.47375 -82.5625 51.6875 C-82 49 -82 49 -81 46 C-80.34 46 -79.68 46 -79 46 C-79 44.68 -79 43.36 -79 42 C-78.34 42 -77.68 42 -77 42 C-77 40.68 -77 39.36 -77 38 C-76.34 38 -75.68 38 -75 38 C-75 37.34 -75 36.68 -75 36 C-74.34 36 -73.68 36 -73 36 C-73 34.68 -73 33.36 -73 32 C-72.34 32 -71.68 32 -71 32 C-71 31.34 -71 30.68 -71 30 C-70.34 30 -69.68 30 -69 30 C-69 29.34 -69 28.68 -69 28 C-68.34 28 -67.68 28 -67 28 C-67 27.34 -67 26.68 -67 26 C-66.34 26 -65.68 26 -65 26 C-65 25.34 -65 24.68 -65 24 C-64.34 24 -63.68 24 -63 24 C-63 23.34 -63 22.68 -63 22 C-62.34 22 -61.68 22 -61 22 C-61 21.34 -61 20.68 -61 20 C-58 18 -58 18 -55 18 C-55 17.34 -55 16.68 -55 16 C-54.34 16 -53.68 16 -53 16 C-53 15.34 -53 14.68 -53 14 C-51.68 14 -50.36 14 -49 14 C-49 13.34 -49 12.68 -49 12 C-47.68 12 -46.36 12 -45 12 C-45 11.34 -45 10.68 -45 10 C-43.68 10 -42.36 10 -41 10 C-41 9.34 -41 8.68 -41 8 C-39.68 8 -38.36 8 -37 8 C-37 7.34 -37 6.68 -37 6 C-34.36 6 -31.72 6 -29 6 C-29 5.34 -29 4.68 -29 4 C-26.36 4 -23.72 4 -21 4 C-21 3.34 -21 2.68 -21 2 C-20.08476562 1.93941406 -19.16953125 1.87882812 -18.2265625 1.81640625 C-16.44378906 1.69072266 -16.44378906 1.69072266 -14.625 1.5625 C-13.44164062 1.48128906 -12.25828125 1.40007812 -11.0390625 1.31640625 C-7.07091589 0.90327016 -4.14532549 -0.17639683 0 0 Z M-8 39 C-9.51469448 39.23192865 -11.03754562 39.41215238 -12.5625 39.5625 C-13.38878906 39.64628906 -14.21507812 39.73007813 -15.06640625 39.81640625 C-16.02353516 39.90728516 -16.02353516 39.90728516 -17 40 C-17 40.66 -17 41.32 -17 42 C-18.98 42 -20.96 42 -23 42 C-23 42.66 -23 43.32 -23 44 C-23.66 44 -24.32 44 -25 44 C-25 44.66 -25 45.32 -25 46 C-26.32 46 -27.64 46 -29 46 C-29 46.66 -29 47.32 -29 48 C-29.66 48 -30.32 48 -31 48 C-31 48.66 -31 49.32 -31 50 C-31.66 50 -32.32 50 -33 50 C-33 50.66 -33 51.32 -33 52 C-33.66 52 -34.32 52 -35 52 C-35 52.66 -35 53.32 -35 54 C-35.66 54 -36.32 54 -37 54 C-37 54.66 -37 55.32 -37 56 C-37.66 56 -38.32 56 -39 56 C-39 57.32 -39 58.64 -39 60 C-39.66 60 -40.32 60 -41 60 C-42.76462683 63.08809695 -43 64.23312136 -43 68 C-43.66 68 -44.32 68 -45 68 C-46.61838726 73.04517487 -47.31432823 77.54194701 -47.5625 82.875 C-47.89928058 89.89928058 -47.89928058 89.89928058 -49 91 C-49.2559115 94.45028922 -49.18973679 97.91636244 -49.1875 101.375 C-49.18814453 102.37547363 -49.18878906 103.37594727 -49.18945312 104.40673828 C-49.14148541 111.10368574 -48.74163045 117.49998636 -47 124 C-46.34 124 -45.68 124 -45 124 C-45 125.98 -45 127.96 -45 130 C-44.34 130 -43.68 130 -43 130 C-43 131.32 -43 132.64 -43 134 C-42.34 134 -41.68 134 -41 134 C-41 135.32 -41 136.64 -41 138 C-40.34 138 -39.68 138 -39 138 C-39 139.32 -39 140.64 -39 142 C-38.34 142 -37.68 142 -37 142 C-37 142.66 -37 143.32 -37 144 C-36.34 144 -35.68 144 -35 144 C-35 144.66 -35 145.32 -35 146 C-34.34 146 -33.68 146 -33 146 C-33 146.66 -33 147.32 -33 148 C-32.34 148 -31.68 148 -31 148 C-31 148.66 -31 149.32 -31 150 C-30.34 150 -29.68 150 -29 150 C-29 150.66 -29 151.32 -29 152 C-28.34 152 -27.68 152 -27 152 C-27 152.66 -27 153.32 -27 154 C-25.68 154 -24.36 154 -23 154 C-23 154.66 -23 155.32 -23 156 C-21.02 156 -19.04 156 -17 156 C-17 156.66 -17 157.32 -17 158 C-12.76471505 160.04854473 -9.2403527 160.26884331 -4.5625 160.25 C-3.28503906 160.25515625 -2.00757813 160.2603125 -0.69140625 160.265625 C2.88550755 160.00823861 5.67316405 159.29576918 9 158 C9 156.68 9 155.36 9 154 C8.34 154 7.68 154 7 154 C7 153.34 7 152.68 7 152 C6.34 152 5.68 152 5 152 C5 151.34 5 150.68 5 150 C4.34 150 3.68 150 3 150 C3 149.34 3 148.68 3 148 C2.34 148 1.68 148 1 148 C1 147.34 1 146.68 1 146 C0.34 146 -0.32 146 -1 146 C-2.125 139.375 -2.125 139.375 -1 136 C-0.34 136 0.32 136 1 136 C1 135.34 1 134.68 1 134 C1.66 134 2.32 134 3 134 C3 133.34 3 132.68 3 132 C3.66 132 4.32 132 5 132 C5 131.34 5 130.68 5 130 C5.66 130 6.32 130 7 130 C7 129.34 7 128.68 7 128 C7.66 128 8.32 128 9 128 C9 127.34 9 126.68 9 126 C9.66 126 10.32 126 11 126 C13.2773501 123.18490007 13.2773501 123.18490007 13 120 C16.96 119.01 16.96 119.01 21 118 C21 118.66 21 119.32 21 120 C22.32 120 23.64 120 25 120 C25 120.66 25 121.32 25 122 C25.66 122 26.32 122 27 122 C27 122.66 27 123.32 27 124 C27.66 124 28.32 124 29 124 C29 124.66 29 125.32 29 126 C29.66 126 30.32 126 31 126 C31 126.66 31 127.32 31 128 C31.66 128 32.32 128 33 128 C33 128.66 33 129.32 33 130 C34.32 130 35.64 130 37 130 C37 129.34 37 128.68 37 128 C37.66 128 38.32 128 39 128 C41.27141454 122.60539047 41.20413361 117.73842251 41 112 C41.66 112 42.32 112 43 112 C43 102.76 43 93.52 43 84 C42.34 84 41.68 84 41 84 C41.02320313 83.34773438 41.04640625 82.69546875 41.0703125 82.0234375 C41.17583753 76.91301097 41.01926302 72.79574967 39 68 C38.34 68 37.68 68 37 68 C37 66.02 37 64.04 37 62 C36.34 62 35.68 62 35 62 C35 61.34 35 60.68 35 60 C34.34 60 33.68 60 33 60 C33 58.68 33 57.36 33 56 C32.34 56 31.68 56 31 56 C31 55.34 31 54.68 31 54 C30.34 54 29.68 54 29 54 C28.87625 53.38125 28.7525 52.7625 28.625 52.125 C28.12802644 49.80879168 28.12802644 49.80879168 26 48 C25.01 48 24.02 48 23 48 C23 47.34 23 46.68 23 46 C22.34 46 21.68 46 21 46 C21 45.34 21 44.68 21 44 C19.68 44 18.36 44 17 44 C17 43.34 17 42.68 17 42 C15.02 42 13.04 42 11 42 C11 41.34 11 40.68 11 40 C9.700625 39.855625 8.40125 39.71125 7.0625 39.5625 C3.125 39.125 3.125 39.125 2 38 C0.50261876 37.9020943 -0.99942892 37.87025136 -2.5 37.875 C-3.3146875 37.87242187 -4.129375 37.86984375 -4.96875 37.8671875 C-6.99530377 37.7754822 -6.99530377 37.7754822 -8 39 Z " fill="#968BDD" transform="translate(196,97)"/>
<path d="M0 0 C36.96 0 73.92 0 112 0 C112 0.66 112 1.32 112 2 C113.051875 1.95875 114.10375 1.9175 115.1875 1.875 C118.74010173 1.99147875 120.84866641 2.47208068 124 4 C124 4.66 124 5.32 124 6 C125.32 6 126.64 6 128 6 C128 6.66 128 7.32 128 8 C128.66 8 129.32 8 130 8 C130 8.66 130 9.32 130 10 C131.98 10.66 133.96 11.32 136 12 C136 12.66 136 13.32 136 14 C136.66 14 137.32 14 138 14 C138 14.66 138 15.32 138 16 C138.66 16 139.32 16 140 16 C140 17.32 140 18.64 140 20 C140.66 20 141.32 20 142 20 C142 20.66 142 21.32 142 22 C142.66 22 143.32 22 144 22 C144 23.32 144 24.64 144 26 C144.66 26 145.32 26 146 26 C148.1519437 29.22791555 148.20086443 30.28400809 148 34 C148.66 34 149.32 34 150 34 C152.28487759 40.34188464 152.23299776 46.24579268 152.125 52.9375 C152.11597656 54.00291016 152.10695313 55.06832031 152.09765625 56.16601562 C152.07423414 58.77758034 152.04143452 61.38866937 152 64 C151.34 64 150.68 64 150 64 C150 66.64 150 69.28 150 72 C149.34 72 148.68 72 148 72 C148 73.32 148 74.64 148 76 C147.34 76 146.68 76 146 76 C146 77.32 146 78.64 146 80 C145.34 80 144.68 80 144 80 C144 81.32 144 82.64 144 84 C143.34 84 142.68 84 142 84 C142 84.66 142 85.32 142 86 C141.34 86 140.68 86 140 86 C140 86.66 140 87.32 140 88 C139.34 88 138.68 88 138 88 C138 88.66 138 89.32 138 90 C137.34 90 136.68 90 136 90 C136 90.66 136 91.32 136 92 C135.34 92 134.68 92 134 92 C134 92.66 134 93.32 134 94 C132.68 94 131.36 94 130 94 C130 94.66 130 95.32 130 96 C130.66 96 131.32 96 132 96 C132 96.66 132 97.32 132 98 C132.66 98 133.32 98 134 98 C134 98.66 134 99.32 134 100 C134.66 100 135.32 100 136 100 C136 100.66 136 101.32 136 102 C136.66 102 137.32 102 138 102 C138 102.66 138 103.32 138 104 C138.66 104 139.32 104 140 104 C144.35849496 111.26415826 146.19245172 117.21646375 146.75390625 125.70703125 C146.75337154 127.96257553 146.75337154 127.96257553 148 129 C148.12314426 131.6786736 148.18612002 134.33554218 148.2109375 137.015625 C148.23901733 138.67579092 148.26768187 140.33594703 148.296875 141.99609375 C148.33807452 144.62060151 148.37494895 147.24492844 148.40136719 149.86962891 C148.42903973 152.39784945 148.47492424 154.92522981 148.5234375 157.453125 C148.5283168 158.62370453 148.5283168 158.62370453 148.53329468 159.81793213 C148.63747973 164.45388194 149.40017353 167.19221696 152 171 C152 171.99 152 172.98 152 174 C152.66 174 153.32 174 154 174 C155.03595522 178.02871475 154.86988854 179.65055731 154 184 C139.48 184 124.96 184 110 184 C110 183.34 110 182.68 110 182 C109.34 182 108.68 182 108 182 C105.74788002 177.44105267 105.6096407 173.22948472 105.4375 168.25 C105.6955059 163.226019 105.6955059 163.226019 104 159 C103.91224395 156.85441173 103.89304781 154.70595579 103.90234375 152.55859375 C103.90717773 150.60083008 103.90717773 150.60083008 103.91210938 148.60351562 C103.92046599 147.2148431 103.92893095 145.82617123 103.9375 144.4375 C103.94251334 143.04492344 103.94707653 141.65234519 103.95117188 140.25976562 C103.96300566 136.8398013 103.9794912 133.41992156 104 130 C103.34 130 102.68 130 102 130 C102 127.36 102 124.72 102 122 C101.34 122 100.68 122 100 122 C100 121.34 100 120.68 100 120 C99.34 120 98.68 120 98 120 C98 119.34 98 118.68 98 118 C97.34 118 96.68 118 96 118 C96 117.34 96 116.68 96 116 C94.02 116 92.04 116 90 116 C90 115.34 90 114.68 90 114 C74.16 114 58.32 114 42 114 C42 136.44 42 158.88 42 182 C41.34 182 40.68 182 40 182 C40 182.66 40 183.32 40 184 C26.8 184 13.6 184 0 184 C0 123.28 0 62.56 0 0 Z M42 36 C42 49.86 42 63.72 42 78 C49.10249757 78.02290307 56.20486803 78.04283197 63.30737305 78.05493164 C65.72567172 78.05997349 68.14396733 78.06680678 70.56225586 78.07543945 C74.02979283 78.08751157 77.49728966 78.09322963 80.96484375 78.09765625 C82.05337143 78.10281754 83.14189911 78.10797882 84.26341248 78.11329651 C85.26437454 78.11337204 86.26533661 78.11344757 87.29663086 78.11352539 C88.18265488 78.115746 89.06867889 78.11796661 89.98155212 78.12025452 C91.9969869 78.22428041 91.9969869 78.22428041 93 77 C95.32817964 76.63239269 97.6618385 76.29758419 100 76 C100 75.34 100 74.68 100 74 C100.804375 73.7525 101.60875 73.505 102.4375 73.25 C105.171081 72.27761141 105.171081 72.27761141 105.8125 69.875 C105.9053125 68.946875 105.9053125 68.946875 106 68 C106.66 68 107.32 68 108 68 C108 66.02 108 64.04 108 62 C108.66 62 109.32 62 110 62 C110.1799928 56.78020872 109.97094808 52.92737019 108 48 C107.34 48 106.68 48 106 48 C106 46.68 106 45.36 106 44 C105.34 44 104.68 44 104 44 C104 43.34 104 42.68 104 42 C103.34 42 102.68 42 102 42 C102 41.34 102 40.68 102 40 C101.34 40 100.68 40 100 40 C100 39.34 100 38.68 100 38 C98.02 38 96.04 38 94 38 C94 37.34 94 36.68 94 36 C76.84 36 59.68 36 42 36 Z " fill="#9388D9" transform="translate(307,105)"/>
<path d="M0 0 C0.66 0 1.32 0 2 0 C4.1519437 3.22791555 4.20086443 4.28400809 4 8 C4.66 8 5.32 8 6 8 C8.28487759 14.34188464 8.23299776 20.24579268 8.125 26.9375 C8.11597656 28.00291016 8.10695313 29.06832031 8.09765625 30.16601562 C8.07423414 32.77758034 8.04143452 35.38866937 8 38 C7.34 38 6.68 38 6 38 C6 40.64 6 43.28 6 46 C5.34 46 4.68 46 4 46 C4 47.32 4 48.64 4 50 C3.34 50 2.68 50 2 50 C2 51.32 2 52.64 2 54 C1.34 54 0.68 54 0 54 C0 55.32 0 56.64 0 58 C-0.66 58 -1.32 58 -2 58 C-2 58.66 -2 59.32 -2 60 C-2.66 60 -3.32 60 -4 60 C-4 60.66 -4 61.32 -4 62 C-4.66 62 -5.32 62 -6 62 C-6 62.66 -6 63.32 -6 64 C-6.66 64 -7.32 64 -8 64 C-8 64.66 -8 65.32 -8 66 C-8.66 66 -9.32 66 -10 66 C-10 66.66 -10 67.32 -10 68 C-11.32 68 -12.64 68 -14 68 C-14 68.66 -14 69.32 -14 70 C-13.34 70 -12.68 70 -12 70 C-12 70.66 -12 71.32 -12 72 C-11.34 72 -10.68 72 -10 72 C-10 72.66 -10 73.32 -10 74 C-9.34 74 -8.68 74 -8 74 C-8 74.66 -8 75.32 -8 76 C-7.34 76 -6.68 76 -6 76 C-6 76.66 -6 77.32 -6 78 C-5.34 78 -4.68 78 -4 78 C-4.33 78.99 -4.66 79.98 -5 81 C-8.63 77.37 -12.26 73.74 -16 70 C-14.83689092 66.51067275 -13.72931853 66.16425214 -10.75390625 64.29296875 C-5.65092245 60.53108091 -1.12199072 54.9680989 1 49 C0.82597656 48.24460938 0.65195312 47.48921875 0.47265625 46.7109375 C-0.11466039 43.34236108 0.52096134 41.09167165 1.4375 37.8125 C2.58514646 33.95635739 2.58514646 33.95635739 3 30 C3.01160156 28.93652344 3.02320313 27.87304688 3.03515625 26.77734375 C3.04417969 25.51019531 3.05320312 24.24304688 3.0625 22.9375 C3.07990234 21.03291016 3.07990234 21.03291016 3.09765625 19.08984375 C3.35687762 16.12873878 3.35687762 16.12873878 2 15 C1.97947526 13.41666264 2.00865568 11.83255466 2.0625 10.25 C2.11264979 6.36060503 1.86754342 3.50164392 0 0 Z " fill="#8E83C9" transform="translate(451,131)"/>
<path d="M0 0 C1.485 0.99 1.485 0.99 3 2 C3.546875 4.75 3.546875 4.75 3.75 8 C3.86601563 9.60875 3.86601563 9.60875 3.984375 11.25 C4 14 4 14 3 16 C3.66 16 4.32 16 5 16 C4.9278125 16.97839844 4.855625 17.95679688 4.78125 18.96484375 C4.2839369 25.98939129 3.87638412 32.9538946 4 40 C3.01 40 2.02 40 1 40 C3.52478604 53.91915996 3.52478604 53.91915996 8.265625 67.1875 C9 69 9 69 9 72 C8.34 72 7.68 72 7 72 C7 70.02 7 68.04 7 66 C6.34 66 5.68 66 5 66 C3.00214565 61.8794254 2.82164485 58.54805635 3 54 C2.34 54 1.68 54 1 54 C0.90912109 52.93458984 0.90912109 52.93458984 0.81640625 51.84765625 C0.73261719 50.92855469 0.64882812 50.00945312 0.5625 49.0625 C0.48128906 48.14597656 0.40007812 47.22945312 0.31640625 46.28515625 C0.23955024 44.03840268 0.23955024 44.03840268 -1 43 C-1.1011692 39.90918535 -1.13968558 36.84117445 -1.1328125 33.75 C-1.13376923 32.82155273 -1.13472595 31.89310547 -1.13571167 30.93652344 C-1.13639355 28.96940035 -1.13453872 27.00227504 -1.13037109 25.03515625 C-1.12502295 22.01296974 -1.13031582 18.99093185 -1.13671875 15.96875 C-1.13605797 14.06249967 -1.13477681 12.15624943 -1.1328125 10.25 C-1.13483673 9.33959961 -1.13686096 8.42919922 -1.13894653 7.49121094 C-1.11494969 1.11494969 -1.11494969 1.11494969 0 0 Z " fill="#575189" transform="translate(106,175)"/>
<path d="M0 0 C1.51400391 0.01740234 1.51400391 0.01740234 3.05859375 0.03515625 C4.07050781 0.04417969 5.08242187 0.05320313 6.125 0.0625 C6.90746094 0.07410156 7.68992188 0.08570313 8.49609375 0.09765625 C8.49609375 0.42765625 8.49609375 0.75765625 8.49609375 1.09765625 C7.53896484 1.18853516 7.53896484 1.18853516 6.5625 1.28125 C5.73621094 1.36503906 4.90992188 1.44882813 4.05859375 1.53515625 C2.82302734 1.65697266 2.82302734 1.65697266 1.5625 1.78125 C-0.4905265 1.8869644 -0.4905265 1.8869644 -1.50390625 3.09765625 C-3.02318663 3.16945589 -4.54558107 3.18157632 -6.06640625 3.16015625 C-6.89269531 3.15113281 -7.71898437 3.14210937 -8.5703125 3.1328125 C-9.20839844 3.12121094 -9.84648437 3.10960937 -10.50390625 3.09765625 C-10.50390625 3.75765625 -10.50390625 4.41765625 -10.50390625 5.09765625 C-12.48390625 5.09765625 -14.46390625 5.09765625 -16.50390625 5.09765625 C-16.50390625 5.75765625 -16.50390625 6.41765625 -16.50390625 7.09765625 C-17.16390625 7.09765625 -17.82390625 7.09765625 -18.50390625 7.09765625 C-18.50390625 7.75765625 -18.50390625 8.41765625 -18.50390625 9.09765625 C-19.82390625 9.09765625 -21.14390625 9.09765625 -22.50390625 9.09765625 C-22.50390625 9.75765625 -22.50390625 10.41765625 -22.50390625 11.09765625 C-23.16390625 11.09765625 -23.82390625 11.09765625 -24.50390625 11.09765625 C-24.50390625 11.75765625 -24.50390625 12.41765625 -24.50390625 13.09765625 C-25.16390625 13.09765625 -25.82390625 13.09765625 -26.50390625 13.09765625 C-26.50390625 13.75765625 -26.50390625 14.41765625 -26.50390625 15.09765625 C-27.16390625 15.09765625 -27.82390625 15.09765625 -28.50390625 15.09765625 C-28.50390625 15.75765625 -28.50390625 16.41765625 -28.50390625 17.09765625 C-29.16390625 17.09765625 -29.82390625 17.09765625 -30.50390625 17.09765625 C-30.50390625 17.75765625 -30.50390625 18.41765625 -30.50390625 19.09765625 C-31.16390625 19.09765625 -31.82390625 19.09765625 -32.50390625 19.09765625 C-32.50390625 20.41765625 -32.50390625 21.73765625 -32.50390625 23.09765625 C-33.16390625 23.09765625 -33.82390625 23.09765625 -34.50390625 23.09765625 C-34.64828125 23.67515625 -34.79265625 24.25265625 -34.94140625 24.84765625 C-35.72265625 27.97265625 -35.72265625 27.97265625 -36.50390625 31.09765625 C-37.16390625 31.09765625 -37.82390625 31.09765625 -38.50390625 31.09765625 C-38.48328125 32.06703125 -38.46265625 33.03640625 -38.44140625 34.03515625 C-38.50390625 37.09765625 -38.50390625 37.09765625 -39.50390625 38.09765625 C-39.71453732 40.6018256 -39.87962702 43.08905706 -40.00390625 45.59765625 C-40.36877111 52.96252111 -40.36877111 52.96252111 -41.50390625 54.09765625 C-41.59104456 55.80537983 -41.61090632 57.51664274 -41.6015625 59.2265625 C-41.59833984 60.26103516 -41.59511719 61.29550781 -41.59179688 62.36132812 C-41.58341797 63.44994141 -41.57503906 64.53855469 -41.56640625 65.66015625 C-41.56189453 66.75263672 -41.55738281 67.84511719 -41.55273438 68.97070312 C-41.54090451 71.6797412 -41.52442168 74.38867224 -41.50390625 77.09765625 C-42.49390625 76.76765625 -43.48390625 76.43765625 -44.50390625 76.09765625 C-44.50390625 68.50765625 -44.50390625 60.91765625 -44.50390625 53.09765625 C-43.84390625 53.09765625 -43.18390625 53.09765625 -42.50390625 53.09765625 C-42.52710938 51.83308594 -42.5503125 50.56851563 -42.57421875 49.265625 C-42.59297751 47.60547465 -42.6111776 45.94531792 -42.62890625 44.28515625 C-42.64566406 43.45177734 -42.66242188 42.61839844 -42.6796875 41.75976562 C-42.68613281 40.95732422 -42.69257813 40.15488281 -42.69921875 39.328125 C-42.70969238 38.58973389 -42.72016602 37.85134277 -42.73095703 37.09057617 C-42.50390625 35.09765625 -42.50390625 35.09765625 -40.50390625 32.09765625 C-39.64747662 30.38479699 -38.79158489 28.67166214 -37.94067383 26.95605469 C-31.89775325 14.96175056 -24.32543142 6.87856394 -11.50390625 2.09765625 C-8.84036414 1.64186295 -6.19439654 1.37598283 -3.50390625 1.09765625 C-2.50390625 0.09765625 -2.50390625 0.09765625 0 0 Z " fill="#0A0B1B" transform="translate(189.50390625,133.90234375)"/>
<path d="M0 0 C6.33333333 6.33333333 12.66666667 12.66666667 19 19 C15.60448304 14.59984614 11.83079253 10.82955089 7.828125 6.98828125 C6 5 6 5 6 3 C9.72617422 4.24205807 11.39291457 6.1110675 14 9 C14 9.66 14 10.32 14 11 C14.99 11.33 15.98 11.66 17 12 C18.58509851 13.72458718 19.97553847 15.54950073 21.40234375 17.40625 C23.23646622 19.23588806 24.47457033 19.6072766 27 20 C27 20.66 27 21.32 27 22 C27.804375 22.12375 28.60875 22.2475 29.4375 22.375 C30.7059375 22.684375 30.7059375 22.684375 32 23 C32.495 23.99 32.495 23.99 33 25 C33.99 25.66 34.98 26.32 36 27 C35.34 27 34.68 27 34 27 C34 27.66 34 28.32 34 29 C34.5775 29.12375 35.155 29.2475 35.75 29.375 C38.02335767 30.00648824 39.9253529 30.88858191 42 32 C40.02 32 38.04 32 36 32 C36 31.34 36 30.68 36 30 C34.68 30 33.36 30 32 30 C32 29.34 32 28.68 32 28 C30.68 28 29.36 28 28 28 C28 27.34 28 26.68 28 26 C26.68 26 25.36 26 24 26 C24 25.34 24 24.68 24 24 C23.34 24 22.68 24 22 24 C22 23.34 22 22.68 22 22 C20.68 22 19.36 22 18 22 C18 21.34 18 20.68 18 20 C17.34 20 16.68 20 16 20 C16 19.34 16 18.68 16 18 C15.34 18 14.68 18 14 18 C14 17.34 14 16.68 14 16 C13.34 16 12.68 16 12 16 C12 15.34 12 14.68 12 14 C11.34 14 10.68 14 10 14 C10 13.34 10 12.68 10 12 C9.34 12 8.68 12 8 12 C8 11.34 8 10.68 8 10 C7.34 10 6.68 10 6 10 C6 9.34 6 8.68 6 8 C5.34 8 4.68 8 4 8 C4 7.34 4 6.68 4 6 C3.34 6 2.68 6 2 6 C2 5.34 2 4.68 2 4 C1.34 4 0.68 4 0 4 C0 2.68 0 1.36 0 0 Z " fill="#46436B" transform="translate(121,257)"/>
<path d="M0 0 C0.66 0.33 1.32 0.66 2 1 C2 8.59 2 16.18 2 24 C1.34 24 0.68 24 0 24 C0 26.64 0 29.28 0 32 C-0.66 32 -1.32 32 -2 32 C-2 33.32 -2 34.64 -2 36 C-2.66 36 -3.32 36 -4 36 C-4 37.32 -4 38.64 -4 40 C-4.66 40 -5.32 40 -6 40 C-6 41.32 -6 42.64 -6 44 C-6.66 44 -7.32 44 -8 44 C-8 44.66 -8 45.32 -8 46 C-8.66 46 -9.32 46 -10 46 C-10 46.66 -10 47.32 -10 48 C-10.66 48 -11.32 48 -12 48 C-12 48.66 -12 49.32 -12 50 C-12.66 50 -13.32 50 -14 50 C-14 50.66 -14 51.32 -14 52 C-14.66 52 -15.32 52 -16 52 C-16 52.66 -16 53.32 -16 54 C-17.32 54 -18.64 54 -20 54 C-20 54.66 -20 55.32 -20 56 C-19.34 56 -18.68 56 -18 56 C-18 56.66 -18 57.32 -18 58 C-17.34 58 -16.68 58 -16 58 C-16 58.66 -16 59.32 -16 60 C-15.34 60 -14.68 60 -14 60 C-14 60.66 -14 61.32 -14 62 C-13.34 62 -12.68 62 -12 62 C-12 62.66 -12 63.32 -12 64 C-11.34 64 -10.68 64 -10 64 C-10.33 64.99 -10.66 65.98 -11 67 C-14.63 63.37 -18.26 59.74 -22 56 C-20.83447341 52.50342022 -19.70850863 52.16428661 -16.7421875 50.26953125 C-7.63778989 43.6351608 -1.74218012 31.95692916 0 21 C0.21783325 17.32746225 0.19093613 13.67720734 0.125 10 C0.11597656 9.03449219 0.10695313 8.06898438 0.09765625 7.07421875 C0.07430635 4.71587901 0.04156047 2.35807714 0 0 Z " fill="#0C0D19" transform="translate(457,145)"/>
<path d="M0 0 C0 0.66 0 1.32 0 2 C1.32 2 2.64 2 4 2 C4 2.66 4 3.32 4 4 C4.66 4 5.32 4 6 4 C6 4.66 6 5.32 6 6 C6.66 6 7.32 6 8 6 C8 6.66 8 7.32 8 8 C8.66 8 9.32 8 10 8 C10 8.66 10 9.32 10 10 C10.66 10 11.32 10 12 10 C12 10.66 12 11.32 12 12 C13.32 12 14.64 12 16 12 C16 11.34 16 10.68 16 10 C16.66 10 17.32 10 18 10 C18 8.35 18 6.7 18 5 C18.66 4.67 19.32 4.34 20 4 C20 6.31 20 8.62 20 11 C19.01 11.33 18.02 11.66 17 12 C17.33 13.32 17.66 14.64 18 16 C15.69 16.66 13.38 17.32 11 18 C10.773125 17.21625 10.54625 16.4325 10.3125 15.625 C9.21875 12.78125 9.21875 12.78125 6.375 11.6875 C5.59125 11.460625 4.8075 11.23375 4 11 C4 10.34 4 9.68 4 9 C4.66 8.67 5.32 8.34 6 8 C3.69 7.34 1.38 6.68 -1 6 C-1.33 4.35 -1.66 2.7 -2 1 C-3.98 1.99 -5.96 2.98 -8 4 C-8 3.34 -8 2.68 -8 2 C-4.77208445 -0.1519437 -3.71599191 -0.20086443 0 0 Z " fill="#8D87D2" transform="translate(217,215)"/>
<path d="M0 0 C1.99954746 -0.04254356 4.00041636 -0.04080783 6 0 C6.33 0.33 6.66 0.66 7 1 C9.50416935 1.21063107 11.99140081 1.37572077 14.5 1.5 C21.86486486 1.86486486 21.86486486 1.86486486 23 3 C24.03125 3.144375 25.0625 3.28875 26.125 3.4375 C29.94345392 3.9917917 33.32219105 4.87414012 37 6 C37 6.66 37 7.32 37 8 C38.32 8 39.64 8 41 8 C41 8.66 41 9.32 41 10 C37.82473961 9.51889994 35.49802383 8.76270217 32.5625 7.375 C27.68192657 5.4912699 24.8150171 6.3949943 20 8 C19.41734375 7.70351562 18.8346875 7.40703125 18.234375 7.1015625 C15.23212035 5.62142996 12.57808609 5.57468517 9.25 5.375 C8.07953125 5.30023438 6.9090625 5.22546875 5.703125 5.1484375 C4.81109375 5.09945312 3.9190625 5.05046875 3 5 C3 3.68 3 2.36 3 1 C2.01 0.67 1.02 0.34 0 0 Z " fill="#505189" transform="translate(190,97)"/>
<path d="M0 0 C0.99 0.495 0.99 0.495 2 1 C2.37400786 3.32716 2.70764733 5.66117862 3 8 C3.33 8.33 3.66 8.66 4 9 C4.27037106 12.42470005 4.44629658 15.84239304 4.60546875 19.2734375 C4.46158649 22.94187048 4.46158649 22.94187048 6 26 C6.07258946 28.18639453 6.08373783 30.37500389 6.0625 32.5625 C6.05347656 33.76003906 6.04445313 34.95757812 6.03515625 36.19140625 C6.02355469 37.11824219 6.01195312 38.04507813 6 39 C5.34 39 4.68 39 4 39 C1.82036428 36.77835916 1.04980473 35.4138286 0.67529297 32.30200195 C0.69736816 31.29097412 0.71944336 30.27994629 0.7421875 29.23828125 C0.75636719 28.11873047 0.77054687 26.99917969 0.78515625 25.84570312 C0.81480469 24.67974609 0.84445312 23.51378906 0.875 22.3125 C1.01924645 14.76501673 1.0365158 7.48683339 0 0 Z " fill="#494471" transform="translate(277,161)"/>
<path d="M0 0 C0.33 0 0.66 0 1 0 C1 1.65 1 3.3 1 5 C0.34 5 -0.32 5 -1 5 C-1 6.32 -1 7.64 -1 9 C-1.66 9 -2.32 9 -3 9 C-3 10.32 -3 11.64 -3 13 C-3.66 13 -4.32 13 -5 13 C-5 13.66 -5 14.32 -5 15 C-5.66 15 -6.32 15 -7 15 C-7 16.98 -7 18.96 -7 21 C-6.34 21 -5.68 21 -5 21 C-5 21.66 -5 22.32 -5 23 C-4.34 23 -3.68 23 -3 23 C-3 23.66 -3 24.32 -3 25 C-2.34 25 -1.68 25 -1 25 C-1 25.66 -1 26.32 -1 27 C-0.34 27 0.32 27 1 27 C1 27.66 1 28.32 1 29 C1.66 29 2.32 29 3 29 C3 29.66 3 30.32 3 31 C3.66 31 4.32 31 5 31 C5 31.66 5 32.32 5 33 C5.66 33 6.32 33 7 33 C7 33.66 7 34.32 7 35 C7.66 35 8.32 35 9 35 C9 37.97 9 40.94 9 44 C7.515 44.495 7.515 44.495 6 45 C6.51046875 43.29070312 6.51046875 43.29070312 7.03125 41.546875 C7.41267169 38.49818751 7.2532006 37.36296403 5.47265625 34.81054688 C3.22564573 32.52024533 0.90741273 30.37108508 -1.5 28.25 C-3.12510967 26.78765562 -4.74029861 25.31418561 -6.34375 23.828125 C-7.06755859 23.1877832 -7.79136719 22.54744141 -8.53710938 21.88769531 C-10 20 -10 20 -9.81005859 17.90869141 C-8.78482145 15.49298798 -7.51789384 13.34947225 -6.125 11.125 C-3.88341494 7.48242427 -1.83003195 3.86340078 0 0 Z " fill="#0F1220" transform="translate(272,240)"/>
<path d="M0 0 C0.33 0 0.66 0 1 0 C0.86181468 3.47951523 0.71317399 6.95850495 0.5625 10.4375 C0.52318359 11.43072266 0.48386719 12.42394531 0.44335938 13.44726562 C0.40146484 14.39150391 0.35957031 15.33574219 0.31640625 16.30859375 C0.27974854 17.18314209 0.24309082 18.05769043 0.20532227 18.95874023 C0 21 0 21 -1 22 C-1.08713831 23.70772358 -1.10700007 25.41898649 -1.09765625 27.12890625 C-1.09443359 28.16337891 -1.09121094 29.19785156 -1.08789062 30.26367188 C-1.07951172 31.35228516 -1.07113281 32.44089844 -1.0625 33.5625 C-1.05798828 34.65498047 -1.05347656 35.74746094 -1.04882812 36.87304688 C-1.03699826 39.58208495 -1.02051543 42.29101599 -1 45 C-1.99 44.67 -2.98 44.34 -4 44 C-4 36.41 -4 28.82 -4 21 C-3.34 21 -2.68 21 -2 21 C-2.02320313 19.73542969 -2.04640625 18.47085938 -2.0703125 17.16796875 C-2.08907126 15.5078184 -2.10727135 13.84766167 -2.125 12.1875 C-2.14175781 11.35412109 -2.15851563 10.52074219 -2.17578125 9.66210938 C-2.18222656 8.85966797 -2.18867188 8.05722656 -2.1953125 7.23046875 C-2.20578613 6.49207764 -2.21625977 5.75368652 -2.22705078 4.99291992 C-2 3 -2 3 0 0 Z " fill="#404563" transform="translate(149,166)"/>
<path d="M0 0 C0 0.33 0 0.66 0 1 C-1.2375 1.309375 -1.2375 1.309375 -2.5 1.625 C-11.93573516 5.33189595 -18.11531654 13.04772505 -24 21 C-24.49189189 14.60540541 -24.49189189 14.60540541 -22.375 12 C-21.59125 11.34 -20.8075 10.68 -20 10 C-19.02916063 8.84371941 -18.07181002 7.6760377 -17.125 6.5 C-11.68040265 0.18426708 -8.13631797 -1.68337613 0 0 Z " fill="#867DCE" transform="translate(177,137)"/>
<path d="M0 0 C1.32 0 2.64 0 4 0 C4 0.66 4 1.32 4 2 C5.98 2 7.96 2 10 2 C10 2.66 10 3.32 10 4 C14.4378561 5.11165232 18.76956386 5.11527763 23.3125 5.0625 C24.42334961 5.05573242 24.42334961 5.05573242 25.55664062 5.04882812 C27.37112899 5.03712175 29.18557534 5.01918898 31 5 C31 5.66 31 6.32 31 7 C29.78763672 7.07347656 29.78763672 7.07347656 28.55078125 7.1484375 C27.48214844 7.22320312 26.41351563 7.29796875 25.3125 7.375 C24.25675781 7.44460938 23.20101562 7.51421875 22.11328125 7.5859375 C19.09019445 7.98800425 16.80396135 8.86272896 14 10 C11.9375 9.125 11.9375 9.125 10 8 C8.68 8 7.36 8 6 8 C5.67 7.34 5.34 6.68 5 6 C4.01 5.34 3.02 4.68 2 4 C2 3.34 2 2.68 2 2 C1.34 1.34 0.68 0.68 0 0 Z M6 4 C6.33 4.66 6.66 5.32 7 6 C7.33 5.34 7.66 4.68 8 4 C7.34 4 6.68 4 6 4 Z " fill="#605C9D" transform="translate(169,251)"/>
<path d="M0 0 C0.94875 0.350625 1.8975 0.70125 2.875 1.0625 C2.30523437 1.33964844 1.73546875 1.61679687 1.1484375 1.90234375 C-1.12413007 3.06205606 -3.30079711 4.33248602 -5.5 5.625 C-9.05570109 7.5984433 -11.97977026 8.96609931 -16.125 9.0625 C-18.5 8.125 -18.5 8.125 -20.125 7.0625 C-18.805 7.0625 -17.485 7.0625 -16.125 7.0625 C-16.455 6.0725 -16.785 5.0825 -17.125 4.0625 C-13.64391892 1.94898649 -13.64391892 1.94898649 -11.125 2.5 C-10.465 2.685625 -9.805 2.87125 -9.125 3.0625 C-6.93796615 2.68342718 -6.93796615 2.68342718 -5.125 2.0625 C-5.125 1.4025 -5.125 0.7425 -5.125 0.0625 C-3.125 -0.9375 -3.125 -0.9375 0 0 Z " fill="#8C83D5" transform="translate(237.125,279.9375)"/>
<path d="M0 0 C0.99 0.33 1.98 0.66 3 1 C3.25280899 5.5505618 3.25280899 5.5505618 1.875 8 C0.69492832 10.05918151 0.69492832 10.05918151 1.9375 12.4375 C2.288125 13.283125 2.63875 14.12875 3 15 C2.6875 17.5625 2.6875 17.5625 2 20 C1.855625 20.680625 1.71125 21.36125 1.5625 22.0625 C0.94212393 24.19935089 0.01452031 26.02435519 -1 28 C-1.02886338 23.52084672 -1.04675187 19.04171709 -1.0625 14.5625 C-1.07087891 13.28310547 -1.07925781 12.00371094 -1.08789062 10.68554688 C-1.09111328 9.47060547 -1.09433594 8.25566406 -1.09765625 7.00390625 C-1.10289307 5.87799072 -1.10812988 4.7520752 -1.11352539 3.59204102 C-1 1 -1 1 0 0 Z " fill="#9180D7" transform="translate(310,115)"/>
<path d="M0 0 C0.66 0 1.32 0 2 0 C2 0.66 2 1.32 2 2 C2.66 2 3.32 2 4 2 C4 3.32 4 4.64 4 6 C4.66 6 5.32 6 6 6 C6 7.32 6 8.64 6 10 C6.66 10 7.32 10 8 10 C8 11.98 8 13.96 8 16 C8.66 16 9.32 16 10 16 C10 17.98 10 19.96 10 22 C9.67 20.68 9.34 19.36 9 18 C8.34 18 7.68 18 7 18 C6.67 18.99 6.34 19.98 6 21 C5.29866401 19.42274653 4.614417 17.83788667 3.9375 16.25 C3.55464844 15.36828125 3.17179687 14.4865625 2.77734375 13.578125 C1.92557349 10.75315831 2.23309747 9.75182671 3 7 C2.4915835 5.05411693 2.4915835 5.05411693 1.5625 3.25 C1.046875 2.1775 0.53125 1.105 0 0 Z " fill="#494770" transform="translate(267,139)"/>
<path d="M0 0 C0.66 0 1.32 0 2 0 C4.1519437 3.22791555 4.20086443 4.28400809 4 8 C4.66 8 5.32 8 6 8 C5.67 14.93 5.34 21.86 5 29 C4.34 29.33 3.68 29.66 3 30 C3.01160156 29.00097656 3.02320313 28.00195312 3.03515625 26.97265625 C3.04417969 25.68230469 3.05320312 24.39195312 3.0625 23.0625 C3.07990234 21.13083984 3.07990234 21.13083984 3.09765625 19.16015625 C3.36532549 16.13701597 3.36532549 16.13701597 2 15 C1.97947526 13.41666264 2.00865568 11.83255466 2.0625 10.25 C2.11264979 6.36060503 1.86754342 3.50164392 0 0 Z " fill="#615C93" transform="translate(451,131)"/>
<path d="M0 0 C0.556875 0.185625 1.11375 0.37125 1.6875 0.5625 C4.399133 1.07551165 6.34371039 0.6640724 9 0 C9.66 0.99 10.32 1.98 11 3 C11.99 3.66 12.98 4.32 14 5 C13.34 5 12.68 5 12 5 C12 5.66 12 6.32 12 7 C12.86625 7.185625 12.86625 7.185625 13.75 7.375 C16.02335767 8.00648824 17.9253529 8.88858191 20 10 C18.02 10 16.04 10 14 10 C14 9.34 14 8.68 14 8 C12.68 8 11.36 8 10 8 C10 7.34 10 6.68 10 6 C8.68 6 7.36 6 6 6 C6 5.34 6 4.68 6 4 C4.68 4 3.36 4 2 4 C2 3.34 2 2.68 2 2 C1.34 2 0.68 2 0 2 C0 1.34 0 0.68 0 0 Z " fill="#3F3C6C" transform="translate(143,279)"/>
<path d="M0 0 C0 0.66 0 1.32 0 2 C1.32 2 2.64 2 4 2 C4 2.66 4 3.32 4 4 C4.66 4 5.32 4 6 4 C6 4.66 6 5.32 6 6 C6.66 6 7.32 6 8 6 C8 6.66 8 7.32 8 8 C8.66 8 9.32 8 10 8 C10 8.66 10 9.32 10 10 C8.55903414 9.57405412 7.12231288 9.13373367 5.6875 8.6875 C4.88699219 8.44386719 4.08648437 8.20023438 3.26171875 7.94921875 C0.85183261 6.93781576 -0.41941979 6.07163426 -2 4 C-2 3.01 -2 2.02 -2 1 C-3.98 1.99 -5.96 2.98 -8 4 C-8 3.34 -8 2.68 -8 2 C-4.77208445 -0.1519437 -3.71599191 -0.20086443 0 0 Z " fill="#3D3C62" transform="translate(217,215)"/>
<path d="M0 0 C0.33 0 0.66 0 1 0 C1 1.65 1 3.3 1 5 C-13.52 5 -28.04 5 -43 5 C-42.67 4.34 -42.34 3.68 -42 3 C-40.79875488 3.01571045 -39.59750977 3.0314209 -38.35986328 3.04760742 C-33.91331661 3.10180885 -29.46679926 3.13631427 -25.02001953 3.16479492 C-23.09353733 3.17990395 -21.16708965 3.20039214 -19.24072266 3.22631836 C-16.47549943 3.26260925 -13.71072996 3.27970479 -10.9453125 3.29296875 C-10.0806839 3.30845261 -9.2160553 3.32393646 -8.32522583 3.33988953 C-5.64947977 3.37595018 -5.64947977 3.37595018 -2 3 C-1.34 2.01 -0.68 1.02 0 0 Z " fill="#080719" transform="translate(460,284)"/>
<path d="M0 0 C3 1 3 1 4.1875 2.875 C5 5 5 5 5 8 C5.66 8 6.32 8 7 8 C7.33 9.65 7.66 11.3 8 13 C7.34 13 6.68 13 6 13 C5.67 13.66 5.34 14.32 5 15 C5 14.34 5 13.68 5 13 C4.34 13 3.68 13 3 13 C1.38050989 10.42786866 0.95591249 9.32330841 1.375 6.25 C1.58125 5.5075 1.7875 4.765 2 4 C1.34 4 0.68 4 0 4 C0 2.68 0 1.36 0 0 Z " fill="#5A568D" transform="translate(454,271)"/>
<path d="M0 0 C0.66 0 1.32 0 2 0 C2 0.99 2 1.98 2 3 C1.34 3 0.68 3 0 3 C1.78809729 7.33970917 1.78809729 7.33970917 5.1875 10.375 C5.785625 10.58125 6.38375 10.7875 7 11 C7 11.99 7 12.98 7 14 C7.33 13.34 7.66 12.68 8 12 C8.66 12 9.32 12 10 12 C10 12.66 10 13.32 10 14 C10.66 14.33 11.32 14.66 12 15 C11.34 15 10.68 15 10 15 C10 15.99 10 16.98 10 18 C9.34 18 8.68 18 8 18 C8 17.34 8 16.68 8 16 C7.34 16 6.68 16 6 16 C6 15.34 6 14.68 6 14 C5.34 14 4.68 14 4 14 C4 13.34 4 12.68 4 12 C3.34 12 2.68 12 2 12 C2 11.34 2 10.68 2 10 C1.34 10 0.68 10 0 10 C-1.125 6.6875 -1.125 6.6875 -2 3 C-1.34 2.01 -0.68 1.02 0 0 Z " fill="#3E3C5B" transform="translate(195,233)"/>
<path d="M0 0 C1.33333333 0 2.66666667 0 4 0 C4.3636198 4.24223102 3.5393228 6.58168085 1 10 C0.34 10 -0.32 10 -1 10 C-1 10.66 -1 11.32 -1 12 C-1.66 12 -2.32 12 -3 12 C-3.33 13.32 -3.66 14.64 -4 16 C-4.66 15.67 -5.32 15.34 -6 15 C-5.67 14.443125 -5.34 13.88625 -5 13.3125 C-3.8690399 10.69715478 -3.84337026 8.8193354 -4 6 C-3.01 5.67 -2.02 5.34 -1 5 C-0.67 3.35 -0.34 1.7 0 0 Z " fill="#5B578B" transform="translate(276,277)"/>
<path d="M0 0 C0.99 0 1.98 0 3 0 C3 0.66 3 1.32 3 2 C3.66 2 4.32 2 5 2 C5 2.66 5 3.32 5 4 C5.66 4 6.32 4 7 4 C7 5.32 7 6.64 7 8 C7.66 8 8.32 8 9 8 C9 8.66 9 9.32 9 10 C9.66 10 10.32 10 11 10 C10.67 11.32 10.34 12.64 10 14 C9.34 13.34 8.68 12.68 8 12 C7.01 12.33 6.02 12.66 5 13 C4.89042969 12.39671875 4.78085937 11.7934375 4.66796875 11.171875 C3.49202872 5.06315013 3.49202872 5.06315013 0 0 Z " fill="#47476D" transform="translate(440,117)"/>
<path d="M0 0 C1.32 0.33 2.64 0.66 4 1 C1.92642516 6.06873851 -0.27236232 8.26847601 -5 11 C-5.33 9.35 -5.66 7.7 -6 6 C-5.01 5.195625 -4.02 4.39125 -3 3.5625 C-2.01 2.716875 -1.02 1.87125 0 1 C0 0.67 0 0.34 0 0 Z " fill="#877ECE" transform="translate(269,287)"/>
<path d="M0 0 C0.33 0 0.66 0 1 0 C1 6.6 1 13.2 1 20 C1.66 20 2.32 20 3 20 C3.30466674 25.28089024 3.317124 26.577168 0 31 C0 20.77 0 10.54 0 0 Z " fill="#957DDA" transform="translate(309,147)"/>
<path d="M0 0 C3.69900008 0.88776002 7.34550461 1.94581864 11 3 C10.01 3.33 9.02 3.66 8 4 C7.67 4.99 7.34 5.98 7 7 C4.03 6.01 1.06 5.02 -2 4 C-2 3.34 -2 2.68 -2 2 C-1.34 2 -0.68 2 0 2 C0 1.34 0 0.68 0 0 Z " fill="#827DD2" transform="translate(157,282)"/>
<path d="M0 0 C1.43088528 2.86177057 0.59991697 4.93375773 0 8 C-0.66 8 -1.32 8 -2 8 C-2.12375 8.70125 -2.2475 9.4025 -2.375 10.125 C-3 13 -3 13 -4 15.6875 C-5.32732838 20.08427527 -5.65714292 24.43458729 -6 29 C-6.33 29 -6.66 29 -7 29 C-7.20852314 22.59370576 -7.1583195 17.07027358 -5 11 C-4.34 11 -3.68 11 -3 11 C-3 9.02 -3 7.04 -3 5 C-2.34 5 -1.68 5 -1 5 C-0.67 3.35 -0.34 1.7 0 0 Z " fill="#242640" transform="translate(114,146)"/>
<path d="M0 0 C1.32 0.33 2.64 0.66 4 1 C3.01 1.495 3.01 1.495 2 2 C2.33 3.32 2.66 4.64 3 6 C2.01 6.66 1.02 7.32 0 8 C-1.34061543 7.69728039 -2.67405895 7.36162029 -4 7 C-6.18703385 7.37907282 -6.18703385 7.37907282 -8 8 C-8 7.34 -8 6.68 -8 6 C-5 4 -5 4 -2 4 C-2 3.34 -2 2.68 -2 2 C-1.34 2 -0.68 2 0 2 C0 1.34 0 0.68 0 0 Z " fill="#514D7B" transform="translate(143,111)"/>
<path d="M0 0 C2 1.5625 2 1.5625 4 4 C4.38046243 8.18508673 3.98757063 11.92627115 3 16 C0.68490441 12.52735662 0.37417545 10.11592992 0 6 C0.33 5.34 0.66 4.68 1 4 C0.60061233 1.90178785 0.60061233 1.90178785 0 0 Z " fill="#5C5990" transform="translate(447,212)"/>
<path d="M0 0 C0.66 0.33 1.32 0.66 2 1 C2 2.65 2 4.3 2 6 C-1.96 7.98 -1.96 7.98 -6 10 C-6 8.68 -6 7.36 -6 6 C-5.34 6 -4.68 6 -4 6 C-4 5.34 -4 4.68 -4 4 C-3.34 4 -2.68 4 -2 4 C-2 3.34 -2 2.68 -2 2 C-1.34 2 -0.68 2 0 2 C0 1.34 0 0.68 0 0 Z " fill="#5A5784" transform="translate(129,123)"/>
<path d="M0 0 C1.32 0 2.64 0 4 0 C4 0.66 4 1.32 4 2 C5.98 2 7.96 2 10 2 C10 2.66 10 3.32 10 4 C11.32 4.33 12.64 4.66 14 5 C11.36 4.67 8.72 4.34 6 4 C5.67 4.66 5.34 5.32 5 6 C4.01 5.34 3.02 4.68 2 4 C2 3.34 2 2.68 2 2 C1.34 1.34 0.68 0.68 0 0 Z " fill="#383565" transform="translate(169,251)"/>
<path d="M0 0 C0.66 0.33 1.32 0.66 2 1 C2 1.66 2 2.32 2 3 C1.01 3 0.02 3 -1 3 C-1.33 4.32 -1.66 5.64 -2 7 C-2.99 7 -3.98 7 -5 7 C-5.33 8.32 -5.66 9.64 -6 11 C-7.32 11.33 -8.64 11.66 -10 12 C-10 11.34 -10 10.68 -10 10 C-9.34 10 -8.68 10 -8 10 C-8 9.34 -8 8.68 -8 8 C-7.34 8 -6.68 8 -6 8 C-6 7.34 -6 6.68 -6 6 C-5.34 6 -4.68 6 -4 6 C-4 5.34 -4 4.68 -4 4 C-3.34 4 -2.68 4 -2 4 C-2 3.34 -2 2.68 -2 2 C-1.34 2 -0.68 2 0 2 C0 1.34 0 0.68 0 0 Z " fill="#414161" transform="translate(207,221)"/>
<path d="M0 0 C0.75 1.5625 0.75 1.5625 1 4 C-0.13084437 6.50286409 -1.52139516 8.67007722 -3 11 C-3.66 10.67 -4.32 10.34 -5 10 C-3.14285714 2.42857143 -3.14285714 2.42857143 0 0 Z " fill="#9788D8" transform="translate(450,179)"/>
<path d="M0 0 C0.66 0 1.32 0 2 0 C2 1.98 2 3.96 2 6 C2.66 6 3.32 6 4 6 C3.67 7.32 3.34 8.64 3 10 C2.34 9.34 1.68 8.68 1 8 C0.01 7.67 -0.98 7.34 -2 7 C-1.34 4.69 -0.68 2.38 0 0 Z " fill="#4C5075" transform="translate(149,221)"/>
<path d="M0 0 C0.66 0 1.32 0 2 0 C1.91253716 1.43861294 1.80434652 2.87597508 1.6875 4.3125 C1.62949219 5.11300781 1.57148438 5.91351563 1.51171875 6.73828125 C0.91793306 9.36272334 0.04219706 10.30820672 -2 12 C-2.28571429 3.42857143 -2.28571429 3.42857143 0 0 Z " fill="#9888D4" transform="translate(346,216)"/>
<path d="M0 0 C0.94875 0.350625 1.8975 0.70125 2.875 1.0625 C-0.06220508 2.58549523 -3.0418649 3.86350302 -6.125 5.0625 C-6.455 4.0725 -6.785 3.0825 -7.125 2.0625 C-6.465 2.0625 -5.805 2.0625 -5.125 2.0625 C-5.125 1.4025 -5.125 0.7425 -5.125 0.0625 C-3.125 -0.9375 -3.125 -0.9375 0 0 Z " fill="#8881CA" transform="translate(237.125,279.9375)"/>
<path d="M0 0 C2.98679769 1.99119846 4.8780499 3.53215423 6 7 C5.625 9.75 5.625 9.75 5 12 C2.06638662 9.57658025 1.5432126 7.71195274 1 4 C0.67516582 2.66457061 0.3449145 1.33038449 0 0 Z " fill="#8B83D1" transform="translate(448,131)"/>
<path d="M0 0 C0.99 0.33 1.98 0.66 3 1 C2.67 4.63 2.34 8.26 2 12 C1.01 11.67 0.02 11.34 -1 11 C-0.67 7.37 -0.34 3.74 0 0 Z " fill="#9487D4" transform="translate(345,139)"/>
<path d="M0 0 C0.598125 0.474375 1.19625 0.94875 1.8125 1.4375 C4.00382924 3.16465744 4.00382924 3.16465744 7 4 C6.67 5.32 6.34 6.64 6 8 C4.02 7.01 2.04 6.02 0 5 C0 3.35 0 1.7 0 0 Z " fill="#8683CF" transform="translate(141,273)"/>
<path d="M0 0 C2.64 0.33 5.28 0.66 8 1 C8 1.66 8 2.32 8 3 C9.32 3.33 10.64 3.66 12 4 C10.5629191 4.05422947 9.12524538 4.09289723 7.6875 4.125 C6.88699219 4.14820313 6.08648437 4.17140625 5.26171875 4.1953125 C3 4 3 4 0 2 C0 1.34 0 0.68 0 0 Z " fill="#5E5997" transform="translate(221,224)"/>
<path d="M0 0 C0.66 0.99 1.32 1.98 2 3 C1.01 4.98 0.02 6.96 -1 9 C-3 7 -3 7 -3.3125 4.5 C-3.209375 3.675 -3.10625 2.85 -3 2 C-2.01 1.34 -1.02 0.68 0 0 Z " fill="#8E82D4" transform="translate(151,157)"/>
<path d="M0 0 C1.32 0.33 2.64 0.66 4 1 C4 1.66 4 2.32 4 3 C0.33012779 4.22329074 -2.33967822 3.88021006 -6.1875 3.5625 C-7.45980469 3.46066406 -8.73210937 3.35882813 -10.04296875 3.25390625 C-11.01878906 3.17011719 -11.99460938 3.08632813 -13 3 C-13 2.67 -13 2.34 -13 2 C-6.565 1.505 -6.565 1.505 0 1 C0 0.67 0 0.34 0 0 Z " fill="#746FBA" transform="translate(185,289)"/>
<path d="M0 0 C0.66 0.33 1.32 0.66 2 1 C2 3.64 2 6.28 2 9 C1.01 9 0.02 9 -1 9 C-1.09765625 2.84765625 -1.09765625 2.84765625 -1 1 C-0.67 0.67 -0.34 0.34 0 0 Z " fill="#8A7DD4" transform="translate(145,178)"/>
<path d="M0 0 C0.66 0.33 1.32 0.66 2 1 C0.25 7.75 0.25 7.75 -2 10 C-2.1953125 3.9453125 -2.1953125 3.9453125 -2 2 C-1.34 1.34 -0.68 0.68 0 0 Z " fill="#9880DF" transform="translate(311,182)"/>
<path d="M0 0 C1.32 0 2.64 0 4 0 C4 0.66 4 1.32 4 2 C4.66 2 5.32 2 6 2 C6 2.66 6 3.32 6 4 C6.99 4.33 7.98 4.66 9 5 C8.01 5.66 7.02 6.32 6 7 C3.66475218 4.74259377 1.81294927 2.7194239 0 0 Z " fill="#514E73" transform="translate(431,111)"/>
<path d="M0 0 C0.33 0 0.66 0 1 0 C1 2.97 1 5.94 1 9 C-0.32 9 -1.64 9 -3 9 C-2.44271087 5.65626525 -1.64826111 2.96687001 0 0 Z " fill="#8B83DA" transform="translate(109,206)"/>
<path d="M0 0 C0.33 0 0.66 0 1 0 C1.19644384 1.89492746 1.38177288 3.79100903 1.5625 5.6875 C1.66691406 6.74324219 1.77132813 7.79898438 1.87890625 8.88671875 C1.99277552 11.81426086 1.70848415 14.17131144 1 17 C-1.37706418 13.33460332 -1.05094317 10.50943165 -0.625 6.25 C-0.51414062 5.07953125 -0.40328125 3.9090625 -0.2890625 2.703125 C-0.19367188 1.81109375 -0.09828125 0.9190625 0 0 Z " fill="#746BB0" transform="translate(451,223)"/>
<path d="M0 0 C2.31 0.33 4.62 0.66 7 1 C7 1.99 7 2.98 7 4 C4.36 3.67 1.72 3.34 -1 3 C-0.67 2.01 -0.34 1.02 0 0 Z " fill="#8F89DD" transform="translate(216,221)"/>
<path d="M0 0 C2.31 0.66 4.62 1.32 7 2 C6.01 2.33 5.02 2.66 4 3 C4.33 3.66 4.66 4.32 5 5 C3.68 5 2.36 5 1 5 C0.34 3.68 -0.32 2.36 -1 1 C-0.67 0.67 -0.34 0.34 0 0 Z " fill="#7F79C1" transform="translate(241,114)"/>
<path d="M0 0 C1.98 0.99 3.96 1.98 6 3 C6 3.33 6 3.66 6 4 C3.1875 4.625 3.1875 4.625 0 5 C-0.99 4.34 -1.98 3.68 -3 3 C-2.01 2.01 -1.02 1.02 0 0 Z " fill="#928BDD" transform="translate(402,136)"/>
<path d="M0 0 C2.86724686 0.57344937 3.8614515 0.8614515 6 3 C2.78548731 4.60725635 -0.43612536 4.05748185 -4 4 C-4 3.34 -4 2.68 -4 2 C-2.68 2 -1.36 2 0 2 C0 1.34 0 0.68 0 0 Z " fill="#443F68" transform="translate(151,107)"/>
<path d="M0 0 C2.50037734 2.17424117 3.43628586 3.73045798 4 7 C2.68 7 1.36 7 0 7 C0 4.69 0 2.38 0 0 Z " fill="#8F88D2" transform="translate(414,274)"/>
<path d="M0 0 C1.32 0 2.64 0 4 0 C4 0.99 4 1.98 4 3 C0.7 3.33 -2.6 3.66 -6 4 C-6 3.67 -6 3.34 -6 3 C-5.195625 2.87625 -4.39125 2.7525 -3.5625 2.625 C-2.716875 2.41875 -1.87125 2.2125 -1 2 C-0.67 1.34 -0.34 0.68 0 0 Z " fill="#A19EDE" transform="translate(200,256)"/>
<path d="M0 0 C1.5625 1.4375 1.5625 1.4375 3 4 C2.96846324 7.05380927 2.53266629 9.99653222 2 13 C1.67 13 1.34 13 1 13 C0.77213542 11.01432292 0.54427083 9.02864583 0.31640625 7.04296875 C0.02829265 4.80603607 0.02829265 4.80603607 -1 2 C-0.67 1.34 -0.34 0.68 0 0 Z " fill="#928FD4" transform="translate(107,213)"/>
<path d="M0 0 C1.53445094 3.06890187 0.54984289 5.70094266 0 9 C-0.99 8.34 -1.98 7.68 -3 7 C-2.38722388 4.03824877 -1.74627478 2.61941217 0 0 Z " fill="#1C1C39" transform="translate(265,253)"/>
<path d="M0 0 C0.33 0 0.66 0 1 0 C1 2.31 1 4.62 1 7 C-0.32 7.33 -1.64 7.66 -3 8 C-3 7.34 -3 6.68 -3 6 C-2.34 6 -1.68 6 -1 6 C-1.0309375 4.7934375 -1.0309375 4.7934375 -1.0625 3.5625 C-1 1 -1 1 0 0 Z " fill="#49456F" transform="translate(236,219)"/>
<path d="M0 0 C-1.75 5.75 -1.75 5.75 -4 8 C-4 5.69 -4 3.38 -4 1 C-2 0 -2 0 0 0 Z " fill="#8881D1" transform="translate(157,150)"/>
<path d="M0 0 C0.99 0 1.98 0 3 0 C3.33 2.31 3.66 4.62 4 7 C2.35 5.35 0.7 3.7 -1 2 C-0.67 1.34 -0.34 0.68 0 0 Z " fill="#8F87CC" transform="translate(410,142)"/>
<path d="M0 0 C1.65 1.65 3.3 3.3 5 5 C4.67 5.99 4.34 6.98 4 8 C3.67 7.01 3.34 6.02 3 5 C2.34 5 1.68 5 1 5 C1 4.34 1 3.68 1 3 C0.34 2.67 -0.32 2.34 -1 2 C-0.67 1.34 -0.34 0.68 0 0 Z " fill="#8F89DD" transform="translate(439,119)"/>
<path d="M0 0 C0.99 0 1.98 0 3 0 C2.67 2.31 2.34 4.62 2 7 C1.34 7 0.68 7 0 7 C0 4.69 0 2.38 0 0 Z " fill="#99B7EC" transform="translate(145,211)"/>
</svg>
